<?xml version="1.0" encoding="UTF-8"?>
<svg id="Ebene_1" xmlns="http://www.w3.org/2000/svg" xmlns:xlink="http://www.w3.org/1999/xlink" version="1.1" viewBox="0 0 78 50">
  <!-- Generator: Adobe Illustrator 29.8.1, SVG Export Plug-In . SVG Version: 2.1.1 Build 2)  -->
  <defs>
    <style>
      .st0 {
        fill: none;
      }

      .st1 {
        fill: #1b1917;
      }

      .st2 {
        clip-path: url(#clippath);
      }
    </style>
    <clipPath id="clippath">
      <rect class="st0" x=".8" width="76.3" height="49"/>
    </clipPath>
  </defs>
  <g class="st2">
    <g>
      <path class="st1" d="M73.1,35.4c2.2,0,4-1.8,4-4s-1.8-4-4-4-4,1.8-4,4,1.8,4,4,4Z"/>
      <path class="st1" d="M.8,34.6v-6.4h26.1c2.7,0,3.9-.6,3.9-2.9v-1.8c0-2.1-1.2-2.9-3.8-2.9H10.6C2.9,20.6.9,17.8.9,12v-1.7C.9,3.4,3.7.8,10.6.8h14.4v6.4h-13.7c-2.3,0-3.4.7-3.4,3.4v1.1c0,2.1.9,2.9,3.4,2.9h16.1c7.7,0,10.5,2.5,10.5,8.6v2.7c0,6.3-2.8,8.8-10.5,8.8H.8Z"/>
      <path class="st1" d="M53.6,34.6c-10.1,0-13.1-3.1-13.1-11.6v-10.6c0-8.5,3-11.6,13.1-11.6h21.7v6.5h-21.3c-4.7,0-5.8,1.3-5.8,5.5v9.9c0,4.2,1.2,5.5,5.9,5.5h10.4v6.5h-10.8Z"/>
      <path class="st1" d="M.8,48.9v-1.2h4.9c.5,0,.7-.1.7-.5v-.3c0-.4-.2-.6-.7-.6h-3.1c-1.4,0-1.8-.5-1.8-1.6v-.3c0-1.3.5-1.8,1.8-1.8h4.9v1.2H2.8c-.4,0-.6.1-.6.6v.2c0,.4.2.6.6.6h3c1.4,0,2,.5,2,1.6v.5c0,1.2-.5,1.6-2,1.6H.8Z"/>
      <path class="st1" d="M17.5,48.9v-4.2l-3.1,4c-.2.2-.3.3-.6.3s-.5,0-.6-.3l-3.1-4v4.2h-1.3v-5.9c0-.4.3-.6.8-.6s.5,0,.7.3l3.6,4.8,3.7-4.8c.2-.2.3-.3.6-.3s.8.2.8.6v5.9h-1.3,0Z"/>
      <path class="st1" d="M26.5,47.5h-4.5l-.9,1.5h-1.7l3.7-5.9c.2-.4.5-.6,1.1-.6s.8.3,1.1.6l3.7,5.9h-1.7l-.9-1.5h0ZM22.7,46.4h3.1l-1.6-2.5-1.6,2.5h0Z"/>
      <path class="st1" d="M40.4,48.9v-5.1h-2.7v-1.2h6.8v1.2h-2.7v5.1h-1.4Z"/>
      <path class="st1" d="M51.5,48.9c-1.9,0-2.5-.6-2.5-2.2v-2c0-1.6.6-2.2,2.5-2.2h4.5v1.2h-4.4c-.9,0-1.1.3-1.1,1v1.9c0,.8.2,1,1.1,1h4.4v1.2h-4.5Z"/>
      <path class="st1" d="M63,48.9v-2.5h-4.7v2.5h-1.4v-6.3h1.4v2.6h4.7v-2.6h1.4v6.3h-1.4Z"/>
      <path class="st1" d="M67,42.6h-1.4v6.3h1.4v-6.3Z"/>
      <path class="st1" d="M69.6,47.1v1.8h-1.4v-6.3h5.2c1.8,0,2.4.6,2.4,2v.6c0,1.5-.5,1.9-2.4,1.9h-3.7ZM74.3,44.7c0-.7-.2-.9-1-.9h-3.7v2.2h3.7c.8,0,1-.2,1-.8v-.4Z"/>
      <path class="st1" d="M37.3,44.9v-.4c0-1.5-.7-1.9-2.5-1.9h-5v6.3h1.4v-2.2h2.8s1.4,2.2,1.4,2.2h1.7l-1.4-2.2c1.2-.1,1.7-.6,1.7-1.8M35.8,44.9c0,.7-.3.8-1.2.8h-3.5v-1.9h3.5c.9,0,1.2.1,1.2.8v.3Z"/>
      <path class="st1" d="M33.7,8c2.2,0,4-1.8,4-4s-1.8-4-4-4-4,1.8-4,4,1.8,4,4,4Z"/>
    </g>
  </g>
</svg>